# Blender 4.5.3 LTS
# www.blender.org
mtllib NavSqr.mtl
o Cube
v -6.421490 -9.761461 6.072985
v -6.421490 2.384509 6.072985
v -6.421490 2.384509 -6.072985
v -6.421490 -9.761461 -6.072985
v -6.072985 -9.761461 -6.421490
v -6.072985 2.384509 -6.421490
v 6.072985 2.384509 -6.421490
v 6.072985 -9.761461 -6.421490
v 6.421490 -9.761461 -6.072985
v 6.421490 2.384509 -6.072985
v 6.421490 2.384509 6.072985
v 6.421490 -9.761461 6.072985
v 6.072985 -9.761461 6.421490
v 6.072985 2.384509 6.421490
v -6.072985 2.384509 6.421490
v -6.072985 -9.761461 6.421490
v -6.072985 -10.109966 -6.072985
v 6.072985 -10.109966 -6.072985
v 6.072985 -10.109966 6.072985
v -6.072985 -10.109966 6.072985
v 6.072985 2.733014 -6.072985
v -6.072985 2.733014 -6.072985
v -6.072985 2.733014 6.072985
v 6.072985 2.733014 6.072985
v 5.137192 2.733014 6.421490
v -5.137192 2.733014 6.421490
v 4.858388 2.384509 6.421490
v -4.858388 2.384509 6.421490
v 4.858388 2.733014 6.072985
v -4.858388 2.733014 6.072985
v -6.421490 2.733014 5.137192
v -6.421490 2.733014 -5.137192
v -6.421490 2.384509 4.858388
v -6.421490 2.384509 -4.858388
v -6.072985 2.733014 4.858388
v -6.072985 2.733014 -4.858388
v -5.137192 2.733014 -6.421490
v 5.137192 2.733014 -6.421490
v -4.858388 2.384509 -6.421490
v 4.858388 2.384509 -6.421490
v -4.858388 2.733014 -6.072985
v 4.858388 2.733014 -6.072985
v 5.138108 -10.109966 -6.421490
v -5.136276 -10.109966 -6.421490
v 4.859254 -9.761461 -6.421490
v -4.857522 -9.761461 -6.421490
v 4.859254 -10.109966 -6.072985
v -4.857522 -10.109966 -6.072985
v -6.421490 -10.109966 -5.137192
v -6.421490 -10.109966 5.137192
v -6.421490 -9.761461 -4.858388
v -6.421490 -9.761461 4.858388
v -6.072985 -10.109966 -4.858388
v -6.072985 -10.109966 4.858388
v -6.421490 1.448716 -6.421490
v -6.421490 -8.825668 -6.421490
v -6.421490 1.169912 -6.072985
v -6.421490 -8.546865 -6.072985
v -6.072985 1.169912 -6.421490
v -6.072985 -8.546865 -6.421490
v 6.421490 1.448716 -6.421490
v 6.421490 -8.825668 -6.421490
v 6.072985 1.169912 -6.421490
v 6.072985 -8.546865 -6.421490
v 6.421490 1.169912 -6.072985
v 6.421490 -8.546865 -6.072985
v 6.421490 -10.109966 5.137192
v 6.421490 -10.109966 -5.137192
v 6.421490 -9.761461 4.858388
v 6.421490 -9.761461 -4.858388
v 6.072985 -10.109966 4.858388
v 6.072985 -10.109966 -4.858388
v 6.421490 1.448716 6.421490
v 6.421490 -8.825668 6.421490
v 6.421490 1.169912 6.072985
v 6.421490 -8.546865 6.072985
v 6.072985 1.169912 6.421490
v 6.072985 -8.546865 6.421490
v -5.137192 -10.109966 6.421490
v 5.137192 -10.109966 6.421490
v -4.858388 -9.761461 6.421490
v 4.858388 -9.761461 6.421490
v -4.858388 -10.109966 6.072985
v 4.858388 -10.109966 6.072985
v -6.421490 -8.825668 6.421490
v -6.421490 1.448716 6.421490
v -6.421490 -8.546865 6.072985
v -6.421490 1.169912 6.072985
v -6.072985 -8.546865 6.421490
v -6.072985 1.169912 6.421490
v 6.421490 2.733014 -5.137192
v 6.421490 2.733014 5.137192
v 6.421490 2.384509 -4.858388
v 6.421490 2.384509 4.858388
v 6.072985 2.733014 -4.858388
v 6.072985 2.733014 4.858388
v -6.742564 -10.431040 5.137192
v -6.742564 -10.431040 6.742564
v -6.742564 1.448716 6.742564
v -6.742564 3.054088 6.742564
v -6.742564 3.054088 -5.137192
v -6.742564 3.054088 -6.742564
v -6.742564 -8.825668 -6.742564
v -6.742564 -10.431040 -6.742564
v -5.136276 -10.431040 -6.742564
v 5.137192 3.054088 -6.742564
v 6.742564 3.054088 -6.742564
v 6.742564 -8.825668 -6.742564
v 6.742564 -10.431040 -6.742564
v 6.742564 -10.431040 -5.137192
v 6.742564 3.054088 5.137192
v 6.742564 3.054088 6.742564
v 6.742564 -8.825668 6.742564
v 6.742564 -10.431040 6.742564
v 5.137192 -10.431040 6.742564
v -5.137192 3.054088 6.742564
v -6.742564 1.169912 6.072985
v -6.742564 2.384509 6.072985
v -6.742564 -9.761461 4.858388
v -6.742564 -9.761461 6.072985
v -6.742564 2.384509 -4.858388
v -6.742564 2.384509 -6.072985
v -6.742564 -8.546865 -6.072985
v -6.742564 -9.761461 -6.072985
v -6.072985 -8.546865 -6.742564
v -6.072985 -9.761461 -6.742564
v -4.857522 -9.761461 -6.742564
v 4.858388 2.384509 -6.742564
v 6.072985 2.384509 -6.742564
v 6.072985 -8.546865 -6.742564
v 6.072985 -9.761461 -6.742564
v -6.072985 2.384509 -6.742564
v 6.742564 -8.546865 -6.072985
v 6.742564 -9.761461 -6.072985
v 6.742564 -9.761461 -4.858388
v 6.742564 2.384509 4.858388
v 6.742564 2.384509 6.072985
v 6.742564 -8.546865 6.072985
v 6.742564 -9.761461 6.072985
v 6.742564 2.384509 -6.072985
v 6.072985 -8.546865 6.742564
v 6.072985 -9.761461 6.742564
v 4.858388 -9.761461 6.742564
v -4.858388 2.384509 6.742564
v -6.072985 2.384509 6.742564
v -6.072985 1.169912 6.742564
v 6.072985 2.384509 6.742564
v -6.072985 -9.761461 6.742564
v -4.857522 -10.431040 -6.072985
v -6.072985 -10.431040 -6.072985
v -6.072985 -10.431040 4.858388
v -6.072985 -10.431040 6.072985
v 6.072985 -10.431040 -4.858388
v 6.072985 -10.431040 -6.072985
v 4.858388 -10.431040 6.072985
v 6.072985 -10.431040 6.072985
v 4.858388 3.054088 -6.072985
v 6.072985 3.054088 -6.072985
v 6.072985 3.054088 4.858388
v 6.072985 3.054088 6.072985
v -6.072985 3.054088 -4.858388
v -6.072985 3.054088 -6.072985
v -4.858388 3.054088 6.072985
v -6.072985 3.054088 6.072985
v 5.137192 3.054088 6.742564
v 4.858388 2.384509 6.742564
v 4.858388 3.054088 6.072985
v -6.742564 3.054088 5.137192
v -6.742564 2.384509 4.858388
v -6.072985 3.054088 4.858388
v -5.137192 3.054088 -6.742564
v -4.858388 2.384509 -6.742564
v -4.858388 3.054088 -6.072985
v 5.138108 -10.431040 -6.742564
v 4.859254 -9.761461 -6.742564
v 4.859254 -10.431040 -6.072985
v -6.742564 -10.431040 -5.137192
v -6.742564 -9.761461 -4.858388
v -6.072985 -10.431040 -4.858388
v -6.742564 1.448716 -6.742564
v -6.742564 1.169912 -6.072985
v -6.072985 1.169912 -6.742564
v 6.742564 1.448716 -6.742564
v 6.072985 1.169912 -6.742564
v 6.742564 1.169912 -6.072985
v 6.742564 -10.431040 5.137192
v 6.742564 -9.761461 4.858388
v 6.072985 -10.431040 4.858388
v 6.742564 1.448716 6.742564
v 6.742564 1.169912 6.072985
v 6.072985 1.169912 6.742564
v -5.137192 -10.431040 6.742564
v -4.858388 -9.761461 6.742564
v -4.858388 -10.431040 6.072985
v -6.742564 -8.825668 6.742564
v -6.742564 -8.546865 6.072985
v -6.072985 -8.546865 6.742564
v 6.742564 3.054088 -5.137192
v 6.742564 2.384509 -4.858388
v 6.072985 3.054088 -4.858388
v 4.858388 2.633014 -6.072985
v 6.072985 2.633014 -6.072985
v 6.072985 2.633014 4.858388
v 6.072985 2.633014 6.072985
v -6.072985 2.633014 -4.858388
v -6.072985 2.633014 -6.072985
v -4.858388 2.633014 6.072985
v -6.072985 2.633014 6.072985
v 4.858388 2.633014 6.072985
v -6.072985 2.633014 4.858388
v -4.858388 2.633014 -6.072985
v 6.072985 2.633014 -4.858388
v -6.321490 1.169912 6.072985
v -6.321490 2.384509 6.072985
v -6.321490 -9.761461 4.858388
v -6.321490 -9.761461 6.072985
v -6.321490 2.384509 -4.858388
v -6.321490 2.384509 -6.072985
v -6.321490 -8.546865 -6.072985
v -6.321490 -9.761461 -6.072985
v -6.321490 2.384509 4.858388
v -6.321490 -9.761461 -4.858388
v -6.321490 1.169912 -6.072985
v -6.321490 -8.546865 6.072985
v -6.072985 -8.546865 -6.321490
v -6.072985 -9.761461 -6.321490
v -4.857522 -9.761461 -6.321490
v 4.858388 2.384509 -6.321490
v 6.072985 2.384509 -6.321490
v 6.072985 -8.546865 -6.321490
v 6.072985 -9.761461 -6.321490
v -6.072985 2.384509 -6.321490
v -4.858388 2.384509 -6.321490
v 4.859254 -9.761461 -6.321490
v -6.072985 1.169912 -6.321490
v 6.072985 1.169912 -6.321490
v 6.321490 -8.546865 -6.072985
v 6.321490 -9.761461 -6.072985
v 6.321490 -9.761461 -4.858388
v 6.321490 2.384509 4.858388
v 6.321490 2.384509 6.072985
v 6.321490 -8.546865 6.072985
v 6.321490 -9.761461 6.072985
v 6.321490 2.384509 -6.072985
v 6.321490 1.169912 -6.072985
v 6.321490 -9.761461 4.858388
v 6.321490 1.169912 6.072985
v 6.321490 2.384509 -4.858388
v -4.857522 -10.009966 -6.072985
v -6.072985 -10.009966 -6.072985
v -6.072985 -10.009966 4.858388
v -6.072985 -10.009966 6.072985
v 6.072985 -10.009966 -4.858388
v 6.072985 -10.009966 -6.072985
v 4.858388 -10.009966 6.072985
v 6.072985 -10.009966 6.072985
v 4.859254 -10.009966 -6.072985
v -6.072985 -10.009966 -4.858388
v 6.072985 -10.009966 4.858388
v -4.858388 -10.009966 6.072985
v 6.072985 -8.546865 6.321490
v 6.072985 -9.761461 6.321490
v 4.858388 -9.761461 6.321490
v -4.858388 2.384509 6.321490
v -6.072985 2.384509 6.321490
v -6.072985 1.169912 6.321490
v 6.072985 2.384509 6.321490
v 4.858388 2.384509 6.321490
v 6.072985 1.169912 6.321490
v -6.072985 -9.761461 6.321490
v -4.858388 -9.761461 6.321490
v -6.072985 -8.546865 6.321490
vn -0.0000 1.0000 -0.0000
vn -0.2335 -0.4671 0.8528
vn -1.0000 -0.0000 -0.0000
vn -0.2335 0.4671 -0.8528
vn -0.0000 -0.0000 -1.0000
vn -0.2335 -0.4671 -0.8528
vn -0.2335 0.4671 0.8528
vn -0.0000 -1.0000 -0.0000
vn 0.8529 -0.4670 0.2335
vn 0.4671 0.2335 -0.8528
vn 0.4671 -0.2335 0.8528
vn -0.8528 -0.4671 0.2336
vn 0.4671 0.2335 0.8528
vn 0.4671 -0.2335 -0.8528
vn -0.8528 0.2336 -0.4671
vn 0.8529 0.2335 -0.4670
vn -0.8528 0.2335 0.4671
vn -0.0000 -0.0000 1.0000
vn 0.4671 0.8528 0.2335
vn 0.2335 -0.8528 0.4671
vn 0.4671 -0.8528 0.2335
vn 0.2335 0.8528 0.4671
vn 1.0000 -0.0000 -0.0000
vn -0.8528 0.4671 0.2335
vn -0.2335 -0.8528 -0.4671
vn -0.4671 0.8528 -0.2335
vn 0.8528 0.4671 0.2335
vn -0.2335 0.8528 -0.4671
vn -0.4671 -0.8528 -0.2335
vn 0.8528 -0.2335 -0.4671
vn -0.8528 -0.2335 -0.4671
vn 0.8528 -0.2335 0.4671
vn -0.8528 -0.2335 0.4671
vn -0.4671 0.2335 -0.8528
vn -0.8528 0.4671 -0.2335
vn 0.8528 0.2335 0.4671
vn -0.4671 0.2335 0.8528
vn 0.8528 0.4671 -0.2335
vn 0.8528 -0.4671 -0.2335
vn 0.4671 0.8528 -0.2335
vn 0.2335 -0.4671 0.8528
vn 0.4671 -0.8528 -0.2335
vn 0.2335 -0.4671 -0.8528
vn -0.2335 -0.8528 0.4671
vn -0.2335 0.8528 0.4671
vn -0.4671 -0.2335 0.8528
vn -0.4671 -0.2335 -0.8528
vn -0.4671 0.8528 0.2335
vn 0.2335 0.4671 -0.8528
vn -0.4671 -0.8528 0.2335
vn 0.2335 0.4671 0.8528
vn 0.2335 -0.8528 -0.4671
vn -0.8528 -0.4671 -0.2335
vn 0.2335 0.8528 -0.4671
vt 0.626966 0.498418
vt 0.628748 0.473970
vt 0.635243 0.474744
vt 0.633593 0.499114
vt 0.334894 0.544070
vt 0.344120 0.545686
vt 0.348743 0.554530
vt 0.334054 0.550348
vt 0.412928 0.551104
vt 0.411145 0.575551
vt 0.404651 0.574777
vt 0.406301 0.550407
vt 0.420414 0.544070
vt 0.429640 0.545686
vt 0.434263 0.554530
vt 0.419574 0.550348
vt 0.457094 0.531087
vt 0.455688 0.506578
vt 0.462334 0.506113
vt 0.463605 0.530458
vt 0.481642 0.545788
vt 0.490804 0.544070
vt 0.491820 0.550407
vt 0.477022 0.554530
vt 0.610161 0.462934
vt 0.619323 0.461216
vt 0.620339 0.467554
vt 0.605541 0.471676
vt 0.498447 0.506868
vt 0.496665 0.531316
vt 0.490170 0.530542
vt 0.491820 0.506172
vt 0.505933 0.499834
vt 0.515159 0.501450
vt 0.519781 0.510295
vt 0.505093 0.506113
vt 0.463173 0.544070
vt 0.472399 0.545686
vt 0.462334 0.550348
vt 0.591692 0.461216
vt 0.600918 0.462832
vt 0.590852 0.467495
vt 0.438884 0.634258
vt 0.448047 0.632540
vt 0.449063 0.638878
vt 0.434264 0.643000
vt 0.353363 0.545788
vt 0.362525 0.544070
vt 0.363541 0.550407
vt 0.438883 0.545788
vt 0.448045 0.544070
vt 0.449061 0.550407
vt 0.420414 0.632540
vt 0.429640 0.634156
vt 0.419574 0.638819
vt 0.457094 0.575322
vt 0.455688 0.550813
vt 0.463605 0.574693
vt 0.585613 0.492469
vt 0.584206 0.467960
vt 0.592124 0.491840
vt 0.524400 0.501553
vt 0.533562 0.499834
vt 0.534578 0.506172
vt 0.498447 0.551103
vt 0.496665 0.575551
vt 0.490170 0.574777
vt 0.643771 0.547969
vt 0.634609 0.549687
vt 0.633593 0.543350
vt 0.648391 0.539227
vt 0.371575 0.575322
vt 0.370168 0.550813
vt 0.376814 0.550348
vt 0.378086 0.574693
vt 0.626966 0.468250
vt 0.625183 0.492698
vt 0.618689 0.491924
vt 0.414337 0.663776
vt 0.412928 0.639285
vt 0.420847 0.663146
vt 0.414335 0.575322
vt 0.412928 0.550813
vt 0.420846 0.574693
vt 0.455690 0.639575
vt 0.453906 0.664005
vt 0.447411 0.663230
vt 0.591692 0.505452
vt 0.600918 0.507068
vt 0.605541 0.515912
vt 0.590852 0.511730
vt 0.328815 0.575322
vt 0.327408 0.550813
vt 0.335326 0.574693
vt 0.377654 0.499834
vt 0.386880 0.501450
vt 0.391503 0.510294
vt 0.376814 0.506113
vt 0.626966 0.586888
vt 0.628748 0.562441
vt 0.635243 0.563214
vt 0.633593 0.587585
vt 0.610161 0.551405
vt 0.619323 0.549687
vt 0.620339 0.556025
vt 0.605541 0.560147
vt 0.626966 0.512486
vt 0.625183 0.536933
vt 0.618689 0.536160
vt 0.620339 0.511789
vt 0.353363 0.590023
vt 0.362525 0.588305
vt 0.363541 0.594642
vt 0.348743 0.598765
vt 0.370168 0.639574
vt 0.368385 0.664022
vt 0.361891 0.663248
vt 0.363541 0.638878
vt 0.634452 0.593922
vt 0.643678 0.595539
vt 0.648301 0.604383
vt 0.633612 0.600201
vt 0.591692 0.549687
vt 0.600918 0.551303
vt 0.590852 0.555966
vt 0.334894 0.588305
vt 0.344120 0.589921
vt 0.334054 0.594584
vt 0.455688 0.551103
vt 0.453905 0.575551
vt 0.447411 0.574777
vt 0.396123 0.590023
vt 0.405285 0.588305
vt 0.406301 0.594642
vt 0.391503 0.598765
vt 0.610161 0.507170
vt 0.619323 0.505452
vt 0.396123 0.501552
vt 0.405285 0.499834
vt 0.406301 0.506172
vt 0.669726 0.600956
vt 0.667943 0.625404
vt 0.661449 0.624630
vt 0.663099 0.600260
vt 0.377654 0.588305
vt 0.386880 0.589921
vt 0.376814 0.594584
vt 0.585613 0.580940
vt 0.584206 0.556431
vt 0.592124 0.580311
vt 0.541205 0.255659
vt 0.548372 0.249917
vt 0.548371 0.461216
vt 0.541205 0.455475
vt 0.555538 0.455475
vt 0.555538 0.255659
vt 0.555538 0.255659
vt 0.562706 0.249917
vt 0.562705 0.461216
vt 0.555538 0.455475
vt 0.569872 0.455475
vt 0.569872 0.255659
vt 0.584206 0.455475
vt 0.577039 0.461216
vt 0.577040 0.249917
vt 0.584206 0.255659
vt 0.569872 0.255659
vt 0.569872 0.455475
vt 0.584206 0.255659
vt 0.591373 0.249917
vt 0.591373 0.461216
vt 0.584206 0.455475
vt 0.598540 0.455475
vt 0.598540 0.255659
vt 0.328815 0.619558
vt 0.327408 0.595049
vt 0.335326 0.618928
vt 0.670210 0.455475
vt 0.663043 0.461216
vt 0.663042 0.249917
vt 0.670209 0.255659
vt 0.655876 0.255659
vt 0.655876 0.455475
vt 0.598540 0.255659
vt 0.605707 0.249917
vt 0.605707 0.461216
vt 0.598540 0.455475
vt 0.612874 0.455475
vt 0.612874 0.255659
vt 0.555538 0.666774
vt 0.548371 0.672515
vt 0.548372 0.461216
vt 0.555538 0.466958
vt 0.541205 0.466958
vt 0.541205 0.666773
vt 0.569872 0.666774
vt 0.562705 0.672515
vt 0.562706 0.461216
vt 0.569872 0.466958
vt 0.555538 0.466958
vt 0.555538 0.666773
vt 0.652921 0.595641
vt 0.662083 0.593922
vt 0.626966 0.556721
vt 0.625183 0.581169
vt 0.618689 0.580395
vt 0.370168 0.595339
vt 0.368385 0.619787
vt 0.361891 0.619013
vt 0.371575 0.619557
vt 0.370168 0.595049
vt 0.378086 0.618928
vt 0.584206 0.666774
vt 0.577039 0.672515
vt 0.577039 0.461216
vt 0.584206 0.466958
vt 0.569872 0.466958
vt 0.569872 0.666774
vt 0.612874 0.255659
vt 0.620041 0.249917
vt 0.620041 0.461216
vt 0.627208 0.455475
vt 0.627208 0.255659
vt 0.627208 0.255659
vt 0.634375 0.249917
vt 0.634374 0.461216
vt 0.627208 0.455475
vt 0.641542 0.455475
vt 0.641542 0.255659
vt 0.641542 0.255659
vt 0.648709 0.249917
vt 0.648708 0.461216
vt 0.641542 0.455475
vt 0.655876 0.455475
vt 0.655876 0.255659
vt 0.391310 0.544069
vt 0.378086 0.530458
vt 0.348743 0.643001
vt 0.348550 0.676776
vt 0.335326 0.663164
vt 0.334054 0.638819
vt 0.434263 0.598765
vt 0.434070 0.632540
vt 0.420846 0.618928
vt 0.419574 0.594584
vt 0.434263 0.510294
vt 0.434070 0.544070
vt 0.420846 0.530458
vt 0.419574 0.506113
vt 0.477022 0.598765
vt 0.476830 0.632540
vt 0.463605 0.618928
vt 0.462334 0.594584
vt 0.648108 0.638158
vt 0.634884 0.624546
vt 0.605348 0.549687
vt 0.592124 0.536075
vt 0.519588 0.544088
vt 0.506363 0.530476
vt 0.605348 0.593922
vt 0.434070 0.588305
vt 0.391503 0.554530
vt 0.391310 0.588305
vt 0.348550 0.588305
vt 0.391503 0.643001
vt 0.391310 0.676776
vt 0.378086 0.663164
vt 0.376814 0.638819
vt 0.648391 0.583462
vt 0.648583 0.549687
vt 0.661808 0.563299
vt 0.663080 0.587644
vt 0.348550 0.632540
vt 0.648583 0.505452
vt 0.661808 0.519064
vt 0.663079 0.543408
vt 0.434071 0.676757
vt 0.476830 0.588305
vt 0.348833 0.533609
vt 0.349026 0.499834
vt 0.362250 0.513446
vt 0.363522 0.537791
vt 0.648391 0.494991
vt 0.648583 0.461216
vt 0.661808 0.474828
vt 0.663079 0.499173
vt 0.391310 0.632540
vt 0.605541 0.604383
vt 0.605348 0.638158
vt 0.592124 0.624546
vt 0.590852 0.600201
vt 0.477022 0.510294
vt 0.476830 0.544069
vt 0.605348 0.505452
vt 0.620339 0.600260
vt 0.618689 0.624630
vt 0.404651 0.619013
vt 0.532929 0.530560
vt 0.449061 0.506172
vt 0.447411 0.530542
vt 0.449061 0.594642
vt 0.447411 0.619013
vt 0.491820 0.594643
vt 0.490170 0.619013
vt 0.361891 0.574777
vt 0.406301 0.638878
vt 0.404651 0.663248
vt 0.635243 0.518979
vt 0.334035 0.537732
vt 0.335685 0.513362
vt 0.404651 0.530542
vt 0.643771 0.592204
vt 0.634609 0.593922
vt 0.668319 0.518434
vt 0.669726 0.542943
vt 0.668319 0.474199
vt 0.669726 0.498708
vt 0.463173 0.499834
vt 0.472399 0.501450
vt 0.668319 0.562670
vt 0.669726 0.587179
vt 0.371575 0.531087
vt 0.370168 0.506578
vt 0.412928 0.639574
vt 0.411145 0.664022
vt 0.438883 0.501552
vt 0.448045 0.499834
vt 0.481642 0.501552
vt 0.490804 0.499834
vt 0.412928 0.506868
vt 0.411145 0.531316
vt 0.362682 0.544069
vt 0.353456 0.542453
vt 0.414335 0.531087
vt 0.412928 0.506578
vt 0.371575 0.663793
vt 0.370168 0.639284
vt 0.662240 0.505452
vt 0.653014 0.503835
vt 0.662240 0.593922
vt 0.653014 0.592306
vt 0.344213 0.542351
vt 0.335051 0.544069
vt 0.328815 0.663793
vt 0.327408 0.639284
vt 0.396123 0.545788
vt 0.405285 0.544070
vt 0.643771 0.503733
vt 0.634609 0.505452
vt 0.414335 0.619558
vt 0.412928 0.595049
vt 0.377654 0.632540
vt 0.386880 0.634157
vt 0.420414 0.499834
vt 0.429640 0.501450
vt 0.626966 0.600956
vt 0.625183 0.625404
vt 0.396123 0.634259
vt 0.405285 0.632540
vt 0.585613 0.625175
vt 0.584206 0.600666
vt 0.377654 0.544070
vt 0.386880 0.545686
vt 0.498447 0.595339
vt 0.496665 0.619787
vt 0.353363 0.634259
vt 0.362525 0.632540
vt 0.541205 0.506867
vt 0.539424 0.531333
vt 0.457094 0.619558
vt 0.455688 0.595049
vt 0.591692 0.593922
vt 0.600918 0.595539
vt 0.455688 0.506868
vt 0.453905 0.531316
vt 0.327408 0.537036
vt 0.329191 0.512588
vt 0.438883 0.590023
vt 0.448045 0.588305
vt 0.610161 0.595641
vt 0.619323 0.593922
vt 0.370168 0.551103
vt 0.368385 0.575551
vt 0.455688 0.595339
vt 0.453905 0.619787
vt 0.463173 0.588305
vt 0.472400 0.589921
vt 0.334894 0.632540
vt 0.344120 0.634156
vt 0.626966 0.542653
vt 0.628748 0.518205
vt 0.499852 0.531104
vt 0.498447 0.506577
vt 0.481642 0.590023
vt 0.490804 0.588305
vt 0.662240 0.549687
vt 0.653014 0.548071
vt 0.628373 0.625175
vt 0.626966 0.600666
vt 0.368761 0.512817
vt 0.370168 0.537326
vt 0.420414 0.588305
vt 0.429640 0.589921
vt 0.412928 0.595339
vt 0.411145 0.619787
vt 0.585613 0.536704
vt 0.584206 0.512195
vt 0.019409 0.776108
vt 0.017699 0.974609
vt 0.013895 0.975997
vt 0.015594 0.774755
vt 0.015703 -0.000000
vt 0.017806 0.025104
vt 0.013757 0.025134
vt 0.013653 0.000166
vt 0.026395 0.524782
vt 0.024318 0.724624
vt 0.020270 0.724641
vt 0.022346 0.524799
vt 0.004418 0.974850
vt 0.004508 0.999836
vt 0.002457 1.000000
vt 0.000351 0.974878
vt 0.004028 0.749883
vt 0.006007 0.775005
vt 0.001976 0.775031
vt 0.001976 0.750037
vt 0.039389 0.499648
vt 0.041329 0.524768
vt 0.037281 0.524788
vt 0.037337 0.499791
vt 0.024500 0.474665
vt 0.024446 0.499657
vt 0.022394 0.499806
vt 0.020452 0.474679
vt 0.040072 0.249737
vt 0.041463 0.273571
vt 0.037631 0.274879
vt 0.038017 0.249797
vt 0.030685 0.000005
vt 0.034224 0.024916
vt 0.028681 0.024993
vt 0.028627 -0.000000
vt 0.004066 0.474931
vt 0.004031 0.499925
vt 0.001980 0.500076
vt 0.000036 0.474951
vt 0.033670 0.774737
vt 0.031942 0.974581
vt 0.027893 0.974607
vt 0.029622 0.774760
vt 0.015649 0.499965
vt 0.019409 0.524887
vt 0.013865 0.524970
vt 0.013592 0.500023
vt 0.004048 0.724910
vt 0.000000 0.724929
vt 0.010088 0.224971
vt 0.010086 0.249964
vt 0.008034 0.250117
vt 0.006040 0.224996
vt 0.016273 0.249969
vt 0.018106 0.276373
vt 0.014268 0.275086
vt 0.014221 0.250113
vt 0.031726 0.724624
vt 0.031687 0.749615
vt 0.029635 0.749767
vt 0.027678 0.724641
vt 0.011698 0.025123
vt 0.007650 0.025151
vt 0.039768 0.224790
vt 0.034224 0.224878
vt 0.009608 -0.000000
vt 0.007558 0.000165
vt 0.026816 0.274831
vt 0.022768 0.274837
vt 0.039419 0.724611
vt 0.035371 0.724631
vt 0.024952 0.224794
vt 0.025260 0.249735
vt 0.023204 0.249801
vt 0.019409 0.224877
vt 0.012039 0.525049
vt 0.010088 0.724892
vt 0.006040 0.724912
vt 0.007991 0.525068
vt 0.026263 0.774737
vt 0.024534 0.974582
vt 0.020485 0.974607
vt 0.022214 0.774760
vt 0.023278 0.000005
vt 0.026816 0.024917
vt 0.021273 0.024993
vt 0.021219 -0.000000
vt 0.017782 0.999599
vt 0.015731 0.999753
vt 0.017623 0.724769
vt 0.012079 0.724853
vt 0.032360 0.224794
vt 0.026816 0.224877
vt 0.032019 0.999567
vt 0.029968 0.999731
vt 0.037902 0.000003
vt 0.041463 0.024912
vt 0.035920 0.024993
vt 0.035843 0.000000
vt 0.039376 0.749606
vt 0.037324 0.749753
vt 0.005659 0.025123
vt 0.004048 0.224971
vt 0.000000 0.224996
vt 0.001610 0.025151
vt 0.004046 0.249964
vt 0.001995 0.250117
vt 0.006040 0.275088
vt 0.001973 0.275108
vt 0.010106 0.474931
vt 0.010071 0.499924
vt 0.008020 0.500076
vt 0.006076 0.474951
vt 0.010068 0.749883
vt 0.012046 0.775005
vt 0.008016 0.775031
vt 0.008016 0.750037
vt 0.010457 0.974850
vt 0.006391 0.974878
vt 0.039355 0.474675
vt 0.035518 0.473388
vt 0.033802 0.524782
vt 0.029754 0.524799
vt 0.016042 0.474881
vt 0.012210 0.476189
vt 0.010547 0.999836
vt 0.008497 1.000000
vt 0.012079 0.275088
vt 0.008013 0.275108
vt 0.291194 0.749751
vt 0.266256 0.749689
vt 0.291261 0.724727
vt 0.291214 0.499834
vt 0.291334 0.524904
vt 0.266300 0.499925
vt 0.041603 0.499834
vt 0.066540 0.499896
vt 0.041535 0.524858
vt 0.041583 0.749751
vt 0.041463 0.724682
vt 0.066497 0.749660
vt 0.032667 0.249735
vt 0.030612 0.249801
vt 0.031854 0.499657
vt 0.029802 0.499806
vt 0.034224 0.274830
vt 0.030176 0.274837
vt 0.031908 0.474665
vt 0.027860 0.474679
vt 0.291214 0.249917
vt 0.266300 0.249826
vt 0.291334 0.224848
vt 0.041603 0.249917
vt 0.041535 0.224911
vt 0.066540 0.249856
vt 0.041583 -0.000000
vt 0.066497 0.000091
vt 0.041463 0.025087
vt 0.291261 0.025024
vt 0.266256 0.000062
vt 0.291194 0.000000
vt 0.016289 0.224953
vt 0.012240 0.224980
vt 0.017914 0.749714
vt 0.015859 0.749776
vt 0.541065 0.499834
vt 0.516127 0.499772
vt 0.541132 0.474810
vt 0.541084 0.249917
vt 0.541205 0.274987
vt 0.516170 0.250008
vt 0.291474 0.249917
vt 0.316411 0.249979
vt 0.291406 0.274941
vt 0.316368 0.499743
vt 0.291454 0.499834
vt 0.291334 0.474765
vt 0.024279 0.749615
vt 0.022228 0.749767
vt 0.024611 0.999567
vt 0.022561 0.999731
vt 0.791075 0.025069
vt 0.791003 0.224893
vt 0.541204 0.224847
vt 0.541277 0.025024
vt 0.765998 0.249855
vt 0.566239 0.249826
vt 0.766041 0.000091
vt 0.566282 0.000062
vt 0.541344 -0.000000
vt 0.541324 0.249917
vt 0.790935 0.249917
vt 0.790955 -0.000000
vt 0.291214 0.249917
vt 0.291334 0.274987
vt 0.266317 0.250008
vt 0.291194 0.499834
vt 0.266256 0.499772
vt 0.291261 0.474810
vt 0.041583 0.499834
vt 0.041463 0.474765
vt 0.066497 0.499743
vt 0.041603 0.249917
vt 0.066558 0.249979
vt 0.041535 0.274941
vt 0.003568 0.000000
vt 0.001518 0.000165
vt 0.005999 0.525067
vt 0.001951 0.525086
vt 0.291474 0.000000
vt 0.316411 0.000062
vt 0.291406 0.025024
vt 0.291334 0.224847
vt 0.316368 0.249826
vt 0.291454 0.249917
vt 0.541065 0.249917
vt 0.516127 0.249855
vt 0.541132 0.224893
vt 0.541205 0.025069
vt 0.516170 0.000091
vt 0.541084 0.000000
vt 0.041148 0.773371
vt 0.037345 0.774760
vt 0.039675 0.974571
vt 0.039796 0.999547
vt 0.037744 0.999691
vt 0.035857 0.973228
s 0
usemtl White
f 216/538/3 224/539/3 215/540/3
f 220/541/3 222/542/3 219/543/3
f 218/544/3 223/545/3 217/546/3
f 214/547/3 221/548/3 213/549/3
f 223/545/3 219/543/3 222/542/3 217/546/3
f 213/549/3 221/548/3 215/540/3 224/539/3
f 221/548/3 217/546/3 222/542/3 215/540/3
f 229/558/5 236/559/5 228/560/5
f 231/561/5 234/562/5 230/563/5
f 226/564/5 225/565/5 227/566/5
f 233/567/5 235/568/5 232/569/5
f 230/563/5 234/562/5 228/560/5 236/559/5
f 235/568/5 233/567/5 227/566/5 225/565/5
f 234/562/5 227/566/5 233/567/5 228/560/5
f 238/574/23 237/575/23 239/576/23
f 243/577/23 246/578/23 242/579/23
f 241/580/23 247/581/23 240/582/23
f 245/583/23 244/584/23 248/585/23
f 247/581/23 242/579/23 246/578/23 240/582/23
f 245/583/23 248/585/23 239/576/23 237/575/23
f 246/578/23 239/576/23 248/585/23 240/582/23
f 205/590/1 210/591/1 203/592/1 212/593/1
f 207/594/1 209/595/1 203/592/1 210/591/1
f 211/596/1 205/590/1 212/593/1 201/597/1
f 202/598/1 201/597/1 212/593/1
f 204/599/1 203/592/1 209/595/1
f 208/600/1 207/594/1 210/591/1
f 206/601/1 205/590/1 211/596/1
f 254/602/8 253/603/8 257/604/8
f 256/605/8 255/606/8 259/607/8
f 252/608/8 251/609/8 260/610/8
f 250/611/8 249/612/8 258/613/8
f 260/610/8 251/609/8 259/607/8 255/606/8
f 249/612/8 257/604/8 253/603/8 258/613/8
f 253/603/8 259/607/8 251/609/8 258/613/8
f 262/618/18 261/619/18 263/620/18
f 271/621/18 272/622/18 270/623/18
f 265/624/18 266/625/18 264/626/18
f 268/627/18 269/628/18 267/629/18
f 269/628/18 268/627/18 263/620/18 261/619/18
f 266/625/18 272/622/18 271/621/18 264/626/18
f 268/627/18 264/626/18 271/621/18 263/620/18
usemtl Black
f 51/1/1 4/2/1 124/3/1 178/4/1
f 70/5/2 68/6/2 110/7/2 135/8/2
f 78/9/3 13/10/3 142/11/3 141/12/3
f 94/13/4 92/14/4 111/15/4 136/16/4
f 24/17/5 29/18/5 167/19/5 160/20/5
f 67/21/6 69/22/6 187/23/6 186/24/6
f 91/25/7 93/26/7 199/27/7 198/28/7
f 27/29/8 14/30/8 147/31/8 166/32/8
f 46/33/9 44/34/9 105/35/9 127/36/9
f 71/37/10 67/38/10 186/24/10 188/39/10
f 95/40/11 91/41/11 198/28/11 200/42/11
f 43/43/12 45/44/12 175/45/12 174/46/12
f 68/47/13 72/48/13 153/49/13 110/7/13
f 92/50/14 96/51/14 159/52/14 111/15/14
f 47/53/15 43/54/15 174/46/15 176/55/15
f 19/56/3 71/57/3 188/39/3 156/58/3
f 21/59/3 95/60/3 200/42/3 158/61/3
f 44/62/16 48/63/16 149/64/16 105/35/16
f 69/65/1 12/66/1 139/67/1 187/23/1
f 80/68/17 84/69/17 155/70/17 115/71/17
f 12/72/5 76/73/5 138/74/5 139/75/5
f 93/76/8 10/77/8 140/78/8 199/27/8
f 18/79/18 47/80/18 176/55/18 154/81/18
f 11/82/8 94/83/8 136/16/8 137/84/8
f 45/85/1 8/86/1 131/87/1 175/45/1
f 64/88/19 62/89/19 108/90/19 130/91/19
f 9/92/1 70/93/1 135/8/1 134/94/1
f 88/95/20 86/96/20 99/97/20 117/98/20
f 30/99/5 23/100/5 164/101/5 163/102/5
f 61/103/21 63/104/21 184/105/21 183/106/21
f 66/107/18 9/108/18 134/109/18 133/110/18
f 85/111/22 87/112/22 196/113/22 195/114/22
f 36/115/23 22/116/23 162/117/23 161/118/23
f 40/119/24 38/120/24 106/121/24 128/122/24
f 65/123/25 61/124/25 183/106/25 185/125/25
f 89/126/26 85/127/26 195/114/26 197/128/26
f 96/129/3 24/130/3 160/131/3 159/52/3
f 37/132/27 39/133/27 172/134/27 171/135/27
f 62/136/28 66/137/28 133/110/28 108/90/28
f 86/138/29 90/139/29 146/140/29 99/97/29
f 42/141/18 21/142/18 158/143/18 157/144/18
f 41/145/30 37/146/30 171/135/30 173/147/30
f 10/148/18 65/149/18 185/125/18 140/150/18
f 78/151/18 74/152/18 73/153/18 77/154/18
f 75/155/23 73/153/23 74/152/23 76/156/23
f 72/157/8 68/158/8 67/159/8 71/160/8
f 69/161/23 67/159/23 68/158/23 70/162/23
f 66/163/23 62/164/23 61/165/23 65/166/23
f 63/167/5 61/165/5 62/164/5 64/168/5
f 60/169/5 56/170/5 55/171/5 59/172/5
f 57/173/3 55/171/3 56/170/3 58/174/3
f 16/175/23 89/176/23 197/128/23 148/177/23
f 48/178/8 44/179/8 43/180/8 47/181/8
f 45/182/5 43/180/5 44/179/5 46/183/5
f 39/184/5 37/185/5 38/186/5 40/187/5
f 42/188/1 38/186/1 37/185/1 41/189/1
f 30/190/1 26/191/1 25/192/1 29/193/1
f 27/194/18 25/192/18 26/191/18 28/195/18
f 81/196/18 79/197/18 80/198/18 82/199/18
f 84/200/8 80/198/8 79/197/8 83/201/8
f 38/202/31 42/203/31 157/144/31 106/121/31
f 63/204/3 7/205/3 129/206/3 184/105/3
f 87/207/5 1/208/5 120/209/5 196/113/5
f 22/210/18 41/211/18 173/147/18 162/212/18
f 90/213/18 86/214/18 85/215/18 89/216/18
f 87/217/3 85/215/3 86/214/3 88/218/3
f 33/219/3 31/220/3 32/221/3 34/188/3
f 36/222/1 32/221/1 31/220/1 35/223/1
f 51/224/3 49/225/3 50/226/3 52/227/3
f 54/228/8 50/226/8 49/225/8 53/229/8
f 96/230/1 92/231/1 91/232/1 95/233/1
f 93/234/23 91/232/23 92/231/23 94/235/23
f 99/97/3 100/236/3 118/237/3 117/98/3
f 101/238/3 102/239/3 122/240/3 121/241/3
f 103/242/3 104/243/3 124/244/3 123/245/3
f 97/246/3 98/247/3 120/248/3 119/249/3
f 180/250/5 102/251/5 132/252/5 182/253/5
f 106/121/5 107/254/5 129/255/5 128/122/5
f 108/90/5 109/256/5 131/257/5 130/91/5
f 105/35/5 104/258/5 126/259/5 127/36/5
f 183/106/23 107/260/23 140/150/23 185/125/23
f 111/15/23 112/261/23 137/84/23 136/16/23
f 113/262/23 114/263/23 139/75/23 138/74/23
f 110/7/23 109/264/23 134/94/23 135/8/23
f 189/265/18 112/266/18 147/267/18 191/268/18
f 116/269/18 100/270/18 145/271/18 144/272/18
f 195/114/18 98/273/18 148/177/18 197/128/18
f 115/71/18 114/274/18 142/275/18 143/276/18
f 174/46/8 109/277/8 154/81/8 176/55/8
f 186/24/8 114/278/8 156/58/8 188/39/8
f 192/279/8 98/280/8 152/281/8 194/282/8
f 177/283/8 104/284/8 150/285/8 179/286/8
f 171/135/1 102/287/1 162/212/1 173/147/1
f 168/288/1 100/289/1 164/290/1 170/291/1
f 165/292/1 112/293/1 160/20/1 167/19/1
f 198/28/1 107/294/1 158/61/1 200/42/1
f 100/270/1 116/269/1 163/102/1 164/101/1
f 112/293/18 165/292/18 166/32/18 147/31/18
f 102/239/1 101/238/1 161/118/1 162/117/1
f 100/289/3 168/288/3 169/295/3 118/296/3
f 107/254/1 106/121/1 157/144/1 158/143/1
f 102/287/5 171/135/5 172/134/5 132/297/5
f 104/258/8 105/35/8 149/64/8 150/298/8
f 109/277/5 174/46/5 175/45/5 131/87/5
f 98/247/8 97/246/8 151/299/8 152/300/8
f 104/284/3 177/283/3 178/4/3 124/3/3
f 104/243/5 103/242/5 125/301/5 126/302/5
f 102/251/3 180/250/3 181/303/3 122/304/3
f 109/256/23 108/90/23 133/110/23 134/109/23
f 107/260/5 183/106/5 184/105/5 129/206/5
f 109/264/8 110/7/8 153/49/8 154/305/8
f 114/278/23 186/24/23 187/23/23 139/67/23
f 114/263/18 113/262/18 141/12/18 142/11/18
f 112/266/23 189/265/23 190/306/23 137/307/23
f 114/274/8 115/71/8 155/70/8 156/308/8
f 98/280/18 192/279/18 193/309/18 148/310/18
f 100/236/18 99/97/18 146/140/18 145/311/18
f 98/273/3 195/114/3 196/113/3 120/209/3
f 112/261/1 111/15/1 159/52/1 160/131/1
f 107/294/23 198/28/23 199/27/23 140/78/23
f 26/312/32 30/313/32 163/102/32 116/269/32
f 13/314/1 82/315/1 143/276/1 142/275/1
f 17/316/23 53/317/23 179/286/23 150/285/23
f 29/318/33 25/319/33 165/292/33 167/19/33
f 15/320/8 28/321/8 144/272/8 145/271/8
f 2/322/5 88/323/5 117/98/5 118/237/5
f 75/324/5 11/325/5 137/307/5 190/306/5
f 50/326/34 54/327/34 151/299/34 97/246/34
f 25/328/35 27/329/35 166/32/35 165/292/35
f 90/330/23 15/331/23 145/311/23 146/140/23
f 83/332/36 79/333/36 192/279/36 194/282/36
f 1/334/1 52/335/1 119/249/1 120/248/1
f 14/336/3 77/337/3 191/268/3 147/267/3
f 53/338/37 49/339/37 177/283/37 179/286/37
f 28/340/38 26/341/38 116/269/38 144/272/38
f 79/342/39 81/343/39 193/309/39 192/279/39
f 3/344/8 34/345/8 121/241/8 122/240/8
f 74/346/40 78/347/40 141/12/40 113/262/40
f 49/348/41 51/349/41 178/4/41 177/283/41
f 4/350/18 58/351/18 123/245/18 124/244/18
f 77/352/42 73/353/42 189/265/42 191/268/42
f 52/354/43 50/355/43 97/246/43 119/249/43
f 33/356/8 2/357/8 118/296/8 169/295/8
f 73/358/44 75/359/44 190/306/44 189/265/44
f 23/360/23 35/361/23 170/291/23 164/290/23
f 76/362/45 74/363/45 113/262/45 138/74/45
f 57/364/18 3/365/18 122/304/18 181/303/18
f 32/366/46 36/367/46 161/118/46 101/238/46
f 48/368/18 17/369/18 150/298/18 149/64/18
f 6/370/23 59/371/23 182/253/23 132/252/23
f 35/372/47 31/373/47 168/288/47 170/291/47
f 54/374/23 20/375/23 152/300/23 151/299/23
f 81/376/1 16/377/1 148/310/1 193/309/1
f 56/378/48 60/379/48 125/301/48 103/242/48
f 31/380/49 33/381/49 169/295/49 168/288/49
f 72/382/3 18/383/3 154/305/3 153/49/3
f 60/384/23 5/385/23 126/302/23 125/301/23
f 59/386/50 55/387/50 180/250/50 182/253/50
f 34/388/51 32/389/51 101/238/51 121/241/51
f 84/390/5 19/391/5 156/308/5 155/70/5
f 5/392/1 46/393/1 127/36/1 126/259/1
f 55/394/52 57/395/52 181/303/52 180/250/52
f 82/396/53 80/397/53 115/71/53 143/276/53
f 7/398/8 40/399/8 128/122/8 129/255/8
f 20/400/5 83/401/5 194/282/5 152/281/5
f 58/402/54 56/403/54 103/242/54 123/245/54
f 39/404/8 6/405/8 132/297/8 172/134/8
f 8/406/3 64/407/3 130/91/3 131/257/3
f 63/408/3 64/409/3 230/410/3 236/411/3
f 8/412/1 45/413/1 234/414/1 231/415/1
f 69/416/1 70/417/1 239/418/1 246/419/1
f 71/420/3 19/421/3 256/422/3 259/423/3
f 18/424/3 72/425/3 253/426/3 254/427/3
f 16/428/1 81/429/1 271/430/1 270/431/1
f 76/432/5 12/433/5 243/434/5 242/435/5
f 15/436/23 90/437/23 266/438/23 265/439/23
f 2/440/8 33/441/8 221/442/8 214/443/8
f 53/444/23 17/445/23 250/446/23 258/447/23
f 87/448/5 88/449/5 213/450/5 224/451/5
f 6/452/8 39/453/8 233/454/8 232/455/8
f 47/456/18 18/424/18 254/427/18 257/457/18
f 29/458/5 24/459/5 204/460/5 209/461/5
f 5/462/23 60/463/23 225/464/23 226/465/23
f 52/466/1 1/467/1 216/468/1 215/469/1
f 30/470/5 29/458/5 209/461/5 207/471/5
f 1/467/5 87/448/5 224/451/5 216/468/5
f 28/472/8 15/436/8 265/439/8 264/473/8
f 23/474/5 30/470/5 207/471/5 208/475/5
f 75/476/5 76/432/5 242/435/5 247/477/5
f 81/429/1 82/478/1 263/479/1 271/430/1
f 94/480/8 11/481/8 241/482/8 240/483/8
f 42/484/18 41/485/18 211/486/18 201/487/18
f 66/488/18 65/489/18 245/490/18 237/491/18
f 10/492/8 93/493/8 248/494/8 244/495/8
f 64/409/3 8/496/3 231/497/3 230/410/3
f 39/453/8 40/498/8 228/499/8 233/454/8
f 33/441/8 34/500/8 217/501/8 221/442/8
f 88/449/5 2/502/5 214/503/5 213/450/5
f 14/504/8 27/505/8 268/506/8 267/507/8
f 82/478/1 13/508/1 262/509/1 263/479/1
f 84/510/5 83/511/5 260/512/5 255/513/5
f 83/511/5 20/514/5 252/515/5 260/512/5
f 20/514/23 54/516/23 251/517/23 252/515/23
f 95/518/3 21/519/3 202/520/3 212/521/3
f 22/522/23 36/523/23 205/524/23 206/525/23
f 36/523/23 35/526/23 210/527/23 205/524/23
f 89/528/23 16/428/23 270/431/23 272/529/23
f 51/530/1 52/466/1 215/469/1 222/531/1
f 60/463/23 59/532/23 235/533/23 225/464/23
f 93/493/8 94/480/8 240/483/8 248/494/8
f 21/519/18 42/484/18 201/487/18 202/520/18
f 35/526/23 23/534/23 208/535/23 210/527/23
f 96/536/3 95/518/3 212/521/3 203/537/3
f 41/485/18 22/522/18 206/525/18 211/486/18
f 24/459/3 96/536/3 203/537/3 204/460/3
f 34/500/8 3/550/8 218/551/8 217/501/8
f 4/552/1 51/530/1 222/531/1 220/553/1
f 3/550/18 57/554/18 223/555/18 218/551/18
f 57/554/18 58/556/18 219/557/18 223/555/18
f 58/556/18 4/552/18 220/553/18 219/557/18
f 45/413/1 46/570/1 227/571/1 234/414/1
f 46/570/1 5/462/1 226/465/1 227/571/1
f 7/572/3 63/408/3 236/411/3 229/573/3
f 40/498/8 7/572/8 229/573/8 228/499/8
f 59/532/23 6/452/23 232/455/23 235/533/23
f 9/586/18 66/488/18 237/491/18 238/587/18
f 12/433/1 69/416/1 246/419/1 243/434/1
f 11/481/5 75/476/5 247/477/5 241/482/5
f 70/417/1 9/586/1 238/587/1 239/418/1
f 65/489/18 10/588/18 244/589/18 245/490/18
f 54/516/23 53/444/23 258/447/23 251/517/23
f 19/614/5 84/510/5 255/513/5 256/615/5
f 48/616/18 47/456/18 257/457/18 249/617/18
f 17/445/18 48/616/18 249/617/18 250/446/18
f 72/425/3 71/420/3 259/423/3 253/426/3
f 27/505/8 28/472/8 264/473/8 268/506/8
f 13/508/3 78/630/3 261/631/3 262/509/3
f 90/437/23 89/528/23 272/529/23 266/438/23
f 77/632/3 14/633/3 267/634/3 269/635/3
f 78/630/3 77/632/3 269/635/3 261/631/3
