# Blender 4.5.1 LTS
# www.blender.org
mtllib NavTri.mtl
o MainTriangle
v 0.157763 -8.669342 -8.503860
v 0.157763 5.318769 -0.091085
v 7.443440 -8.669342 4.115304
v 0.000000 -8.939734 -8.375029
v 7.252987 -8.939734 4.187515
v -7.252988 -8.939734 4.187515
v 7.285677 -8.669342 4.388557
v 0.000000 5.318769 0.182169
v -7.285677 -8.669342 4.388557
v -7.443441 -8.669342 4.115304
v -0.157763 5.318769 -0.091085
v -0.157763 -8.669342 -8.503860
v 0.157763 -7.270531 -7.662583
v 0.157763 3.919959 -0.932362
v -0.157763 -7.270531 -7.662583
v -0.157763 3.919959 -0.932362
v 0.000000 -7.453304 -8.045760
v 0.000000 4.438132 -0.893973
v -6.967833 -8.939734 3.128907
v -0.774204 -8.939734 -7.598773
v -6.527689 -8.939734 2.931260
v -0.725299 -8.939734 -7.118775
v -6.714873 -8.669342 2.853387
v -0.886331 -8.669342 -7.241944
v 6.193629 -8.939734 4.469867
v -6.193629 -8.939734 4.469867
v 5.802390 -8.939734 4.187515
v -5.802391 -8.939734 4.187515
v 5.828542 -8.669342 4.388557
v -5.828542 -8.669342 4.388557
v 0.774204 -8.939734 -7.598773
v 6.967833 -8.939734 3.128907
v 0.886331 -8.669342 -7.241944
v 6.714873 -8.669342 2.853387
v 0.725299 -8.939734 -7.118775
v 6.527689 -8.939734 2.931260
v 0.774732 4.437117 0.447292
v 6.968361 -7.454319 4.023185
v 0.729065 3.919002 0.603095
v 6.557608 -7.271487 3.968205
v 0.886828 3.919002 0.329842
v 6.715371 -7.271487 3.694952
v -0.774204 4.438132 0.446987
v -6.967833 -7.453304 4.022880
v -0.728568 3.919957 0.602808
v -6.557109 -7.270531 3.967918
v -0.886331 3.919957 0.329554
v -6.714873 -7.270531 3.694664
v 7.485043 -9.392115 2.830295
v 8.779029 -9.401200 5.068575
v 7.562063 -7.042015 4.365960
v -6.193629 -9.392115 5.067090
v -8.779030 -9.401199 5.068576
v -7.561536 -7.040999 4.365654
v -1.291414 -9.392115 -7.897385
v 0.000000 -9.401199 -10.137151
v 0.528466 4.048678 -1.146388
v 0.528467 5.447490 -0.305110
v 7.085577 -8.540622 2.639361
v 7.814144 -8.540622 3.901278
v 0.528467 -8.540622 -8.717886
v 6.527689 -9.386720 2.931260
v 7.252987 -9.386720 4.187515
v -0.725299 -9.386720 -7.118775
v 0.000000 -9.386720 -8.375029
v -5.802391 -9.386720 4.187515
v -7.252988 -9.386720 4.187515
v 6.557608 -7.142767 4.396257
v 7.285677 -8.540622 4.816608
v -5.828542 -8.540622 4.816608
v -7.285677 -8.540622 4.816608
v -6.557109 -7.141811 4.395970
v 0.000000 7.476744 -0.000001
v 0.000000 5.447490 0.610221
v -7.085577 -7.141811 3.480639
v -7.814144 -8.540622 3.901278
v -1.257034 -8.540622 -7.455970
v -0.528467 -8.540622 -8.717886
v -0.528467 5.447490 -0.305110
v 7.086074 -7.142767 3.480926
v -0.528467 4.048678 -1.146388
v 0.000000 4.850438 -1.579522
v 0.528466 -7.141810 -7.876609
v -0.528467 -7.141810 -7.876609
v 0.000000 -7.040999 -8.731308
v -7.485044 -9.392113 2.830295
v -6.527689 -9.386720 2.931260
v -7.085577 -8.540622 2.639361
v 6.193629 -9.392115 5.067090
v 5.802390 -9.386720 4.187515
v 5.828542 -8.540622 4.816608
v 1.291414 -9.392115 -7.897385
v 1.257034 -8.540622 -7.455970
v 0.725299 -9.386720 -7.118775
v 1.368435 4.849422 0.790066
v 0.729065 4.047722 1.031147
v 1.257532 4.047722 0.115816
v -1.367906 4.850438 0.789761
v -0.728568 4.048678 1.030860
v -1.257034 4.048678 0.115529
v 0.074829 3.891161 -0.884480
v 0.074829 5.289971 -0.043203
v 6.631939 -8.698139 2.901269
v 7.360507 -8.698139 4.163185
v 0.074829 -7.299328 -7.614701
v 0.803397 -8.698139 -7.194062
v 6.632437 -7.300284 3.742833
v 0.074829 -8.698139 -8.455978
v 0.803895 3.890204 0.377724
v -6.631939 -7.299329 3.742546
v -7.360507 -8.698139 4.163185
v -0.803397 -8.698139 -7.194062
v -0.074829 -8.698139 -8.455978
v -0.074829 3.891161 -0.884480
v -0.074829 5.289971 -0.043203
v -0.074829 -7.299328 -7.614701
v -6.631939 -8.698139 2.901269
v -0.803397 3.891160 0.377436
v 6.557608 -7.300284 3.872442
v 7.285677 -8.698139 4.292793
v -5.828542 -8.698139 4.292793
v -7.285677 -8.698139 4.292793
v -6.557109 -7.299329 3.872154
v 5.828542 -8.698139 4.292793
v 0.000000 5.289971 0.086405
v 0.729065 3.890204 0.507331
v -0.728568 3.891160 0.507044
v 6.527689 -8.839733 2.931260
v 7.252987 -8.839733 4.187515
v -0.725299 -8.839733 -7.118775
v 0.000000 -8.839733 -8.375029
v -5.802391 -8.839733 4.187515
v -7.252988 -8.839733 4.187515
v 0.725299 -8.839733 -7.118775
v -6.527689 -8.839733 2.931260
v 5.802390 -8.839733 4.187515
vn 0.8949 -0.4274 0.1285
vn -0.2494 0.9576 0.1440
vn -0.2427 -0.5735 0.7824
vn 0.2427 -0.5735 0.7824
vn 0.5587 -0.4274 0.7107
vn -0.4934 0.7961 0.3503
vn -0.7767 0.3484 0.5247
vn 0.2494 0.9576 0.1440
vn -0.5587 -0.4274 0.7107
vn -0.7989 -0.5735 -0.1811
vn 0.3361 -0.4274 -0.8392
vn 0.8660 -0.0000 0.5000
vn -0.0000 0.9576 -0.2880
vn -0.8293 0.2880 -0.4788
vn 0.8293 0.2880 -0.4788
vn -0.0000 -0.0000 -1.0000
vn -0.3361 -0.4274 -0.8392
vn -0.0566 0.7962 -0.6024
vn -0.8660 -0.0000 0.5000
vn 0.6950 0.5967 0.4012
vn -0.6950 0.5967 0.4012
vn -0.0000 -1.0000 -0.0000
vn -0.8949 -0.4274 0.1285
vn -0.0000 0.2880 0.9576
vn -0.5563 -0.5735 -0.6014
vn -0.0000 0.5967 -0.8025
vn 0.1714 -0.5067 0.8449
vn 0.7989 -0.5735 -0.1811
vn -0.6460 -0.5066 -0.5709
vn 0.0660 0.3484 -0.9350
vn -0.0660 0.3484 -0.9350
vn 0.8174 -0.5067 -0.2740
vn 0.8307 0.2876 -0.4767
vn 0.8308 0.2819 -0.4800
vn -0.0088 -1.0000 0.0025
vn 0.0022 -1.0000 -0.0088
vn 0.0065 -1.0000 0.0064
vn -0.0025 0.2876 0.9578
vn 0.0003 0.2819 0.9595
vn -0.8282 0.2876 -0.4810
vn -0.8310 0.2819 -0.4795
vn 0.8282 0.2876 -0.4810
vn -0.8308 0.2819 -0.4800
vn 0.0088 -1.0000 0.0025
vn -0.0003 0.2819 0.9594
vn -0.0022 -1.0000 -0.0088
vn -0.0065 -1.0000 0.0064
vn 0.8310 0.2819 -0.4795
vn 0.0025 0.2876 0.9578
vn -0.8307 0.2876 -0.4767
vn 0.7767 0.3484 0.5247
vn 0.6460 -0.5066 -0.5709
vn -0.8428 0.3484 0.4103
vn 0.4934 0.7962 0.3502
vn 0.5500 0.7962 0.2522
vn -0.1714 -0.5066 0.8450
vn -0.5500 0.7962 0.2522
vn -0.8175 -0.5066 -0.2740
vn 0.0567 0.7961 -0.6025
vn 0.5563 -0.5735 -0.6014
vn 0.8428 0.3484 0.4103
vt 0.530777 0.210546
vt 0.526923 0.257445
vt 0.513982 0.255672
vt 0.517529 0.209007
vt 0.095656 0.238833
vt 0.122976 0.271263
vt 0.112696 0.279355
vt 0.085418 0.247350
vt 0.297318 0.387459
vt 0.286654 0.378577
vt 0.294971 0.368911
vt 0.320593 0.383407
vt 0.527734 0.420396
vt 0.518124 0.410334
vt 0.520559 0.386491
vt 0.536741 0.411471
vt 0.303696 0.750717
vt 0.339119 0.719296
vt 0.347349 0.729454
vt 0.312220 0.760959
vt 0.486280 0.535643
vt 0.490931 0.582194
vt 0.477693 0.584117
vt 0.473445 0.537836
vt 0.450576 0.810642
vt 0.441250 0.800621
vt 0.444009 0.775605
vt 0.459603 0.801861
vt 0.393872 0.391022
vt 0.382609 0.381877
vt 0.390828 0.372133
vt 0.416963 0.385903
vt 0.459612 0.643874
vt 0.485124 0.610651
vt 0.496099 0.618334
vt 0.470427 0.651090
vt 0.382909 0.701827
vt 0.347486 0.670406
vt 0.356011 0.660163
vt 0.391139 0.691669
vt 0.402239 0.582194
vt 0.406890 0.535643
vt 0.419725 0.537836
vt 0.415476 0.584117
vt 0.422375 0.419777
vt 0.413068 0.409358
vt 0.431539 0.411186
vt 0.882238 0.984665
vt 0.882976 0.936418
vt 0.891434 0.939716
vt 0.885190 0.984698
vt 0.876567 0.502696
vt 0.875412 0.550886
vt 0.866939 0.552438
vt 0.873616 0.502638
vt 0.954843 0.402449
vt 0.949304 0.445488
vt 0.946353 0.445400
vt 0.947893 0.402373
vt 0.876567 0.939718
vt 0.870345 0.984726
vt 0.867393 0.984699
vt 0.868015 0.936455
vt 0.546967 0.667855
vt 0.515482 0.695101
vt 0.507660 0.684715
vt 0.538648 0.657353
vt 0.110447 0.336649
vt 0.137767 0.369079
vt 0.127487 0.377171
vt 0.100209 0.345166
vt 0.893351 0.411562
vt 0.885013 0.425270
vt 0.885013 0.015468
vt 0.893352 0.025937
vt 0.876675 0.025937
vt 0.876675 0.411562
vt 0.909133 0.057194
vt 0.908726 0.399951
vt 0.902056 0.400045
vt 0.902464 0.057288
vt 0.501125 0.775074
vt 0.469677 0.810574
vt 0.491019 0.766771
vt 0.347486 0.650650
vt 0.357750 0.641735
vt 0.382578 0.644721
vt 0.985964 0.053788
vt 0.985561 0.396544
vt 0.978871 0.396638
vt 0.979314 0.053881
vt 0.022917 0.081793
vt 0.022917 0.426044
vt 0.012967 0.425272
vt 0.012967 0.082565
vt 0.010509 0.876752
vt 0.010509 0.532501
vt 0.020459 0.533273
vt 0.020459 0.875980
vt 0.859018 0.936541
vt 0.860172 0.984698
vt 0.857220 0.984756
vt 0.850545 0.934989
vt 0.913055 0.936444
vt 0.912331 0.546184
vt 0.920114 0.550901
vt 0.920483 0.941495
vt 0.865922 0.410934
vt 0.857583 0.422499
vt 0.857584 0.056673
vt 0.865922 0.068238
vt 0.849245 0.067466
vt 0.849245 0.411706
vt 0.931855 0.057196
vt 0.931441 0.014150
vt 0.934380 0.013855
vt 0.938271 0.057131
vt 0.408915 0.749921
vt 0.444315 0.718523
vt 0.452544 0.728682
vt 0.417440 0.760164
vt 0.077002 0.975001
vt 0.077002 0.609175
vt 0.085340 0.619968
vt 0.085340 0.964209
vt 0.066904 0.249324
vt 0.076066 0.238833
vt 0.070951 0.272447
vt 0.030409 0.532501
vt 0.030409 0.876752
vt 0.020459 0.875980
vt 0.068664 0.963436
vt 0.068664 0.620740
vt 0.925078 0.984648
vt 0.925531 0.936459
vt 0.933122 0.931629
vt 0.928031 0.984670
vt 0.406433 0.196556
vt 0.422672 0.194950
vt 0.423572 0.207645
vt 0.393080 0.217987
vt 0.081695 0.347140
vt 0.090857 0.336649
vt 0.085742 0.370263
vt 0.040041 0.575038
vt 0.048379 0.563473
vt 0.048379 0.929299
vt 0.040040 0.917733
vt 0.056717 0.918506
vt 0.056717 0.574265
vt 0.477290 0.596766
vt 0.460965 0.595728
vt 0.446585 0.574516
vt 0.801742 0.991595
vt 0.801742 0.581792
vt 0.810080 0.595499
vt 0.810080 0.981123
vt 0.036739 0.274834
vt 0.048342 0.266043
vt 0.044617 0.284730
vt 0.793403 0.981123
vt 0.793404 0.595499
vt 0.917528 0.502638
vt 0.920483 0.502648
vt 0.535789 0.638481
vt 0.546967 0.647789
vt 0.512281 0.643314
vt 0.363517 0.194950
vt 0.379857 0.196352
vt 0.362910 0.207511
vt 0.834140 0.965745
vt 0.825801 0.976214
vt 0.825801 0.566412
vt 0.834139 0.580121
vt 0.817463 0.580121
vt 0.817463 0.965745
vt 0.924526 0.060030
vt 0.924084 0.402786
vt 0.917434 0.402879
vt 0.917837 0.060123
vt 0.905672 0.502679
vt 0.904850 0.550835
vt 0.896355 0.553929
vt 0.902720 0.502638
vt 0.906179 0.938340
vt 0.896799 0.936398
vt 0.909133 0.442805
vt 0.906192 0.443076
vt 0.952770 0.058143
vt 0.946353 0.058103
vt 0.924790 0.555405
vt 0.930168 0.502638
vt 0.933122 0.502661
vt 0.932668 0.550851
vt 0.964237 0.399203
vt 0.965122 0.054871
vt 0.971544 0.054785
vt 0.971191 0.399081
vt 0.912612 0.984677
vt 0.915565 0.984697
vt 0.446585 0.481700
vt 0.502205 0.717069
vt 0.574115 0.329247
vt 0.562413 0.378714
vt 0.124064 0.329129
vt 0.074773 0.313680
vt 0.138855 0.426945
vt 0.089565 0.411496
vt 0.059408 0.382546
vt 0.375884 0.328381
vt 0.361841 0.377953
vt 0.334434 0.409202
vt 0.392718 0.310368
vt 0.365753 0.254241
vt 0.440802 0.703278
vt 0.471710 0.330334
vt 0.459015 0.379648
vt 0.487033 0.219348
vt 0.486672 0.311695
vt 0.459708 0.255569
vt 0.456861 0.208872
vt 0.338787 0.776401
vt 0.397012 0.717845
vt 0.385822 0.767547
vt 0.354378 0.802657
vt 0.458725 0.700558
vt 0.326616 0.341480
vt 0.422195 0.344784
vt 0.494192 0.372452
vt 0.525180 0.345089
vt 0.420028 0.254344
vt 0.398168 0.618466
vt 0.429612 0.653575
vt 0.395926 0.775852
vt 0.364450 0.811371
vt 0.051531 0.372650
vt 0.063133 0.363859
vt 0.446731 0.257025
vt 0.443561 0.209923
vt 0.352776 0.255695
vt 0.349610 0.208560
vt 0.408240 0.609751
vt 0.439717 0.645271
vt 0.432204 0.595728
vt 0.415880 0.596766
vt 0.325186 0.417702
vt 0.315607 0.406683
vt 0.436820 0.209182
vt 0.432970 0.256114
vt 0.286654 0.358459
vt 0.318682 0.331128
vt 0.573228 0.385931
vt 0.547716 0.419154
vt 0.066097 0.323469
vt 0.035502 0.294442
vt 0.379817 0.619706
vt 0.389140 0.609686
vt 0.345350 0.811437
vt 0.336026 0.801417
vt 0.485874 0.361950
vt 0.517358 0.334703
vt 0.372086 0.386020
vt 0.344630 0.417837
vt 0.457468 0.196311
vt 0.473810 0.197713
vt 0.313960 0.779388
vt 0.303696 0.770473
vt 0.382475 0.361710
vt 0.414244 0.334444
vt 0.080888 0.421285
vt 0.050293 0.392258
vt 0.500388 0.197917
vt 0.516629 0.196311
vt 0.419181 0.778594
vt 0.408915 0.769678
vt 0.469280 0.387694
vt 0.441767 0.419777
vt 0.505106 0.609409
vt 0.514717 0.619471
vt 0.497052 0.391323
vt 0.485874 0.382015
vt 0.899308 0.984686
vt 0.896355 0.984672
vt 0.881489 0.552405
vt 0.888479 0.502638
vt 0.891434 0.502661
vt 0.890957 0.550864
vt 0.854217 0.502638
vt 0.860172 0.547715
vt 0.851620 0.550977
vt 0.851262 0.502683
vt 0.904998 0.014163
vt 0.902056 0.014434
vt 0.924491 0.445640
vt 0.921550 0.445913
vt 0.049870 0.436771
vt 0.394156 0.439318
vt 0.240718 0.826341
vt 0.197653 0.826077
vt 0.415314 0.482677
vt 0.437270 0.439866
vt 0.006720 0.436762
vt 0.028074 0.479795
vt 0.219231 0.869360
vt 0.935327 0.444700
vt 0.930969 0.401508
vt 0.937918 0.401407
vt 0.938271 0.444455
vt 0.046433 0.001700
vt 0.390727 0.002517
vt 0.239133 0.390390
vt 0.196083 0.390204
vt 0.412088 0.045782
vt 0.024853 0.044851
vt 0.003316 0.001827
vt 0.433875 0.002930
vt 0.217149 0.433431
vt 0.954699 0.015129
vt 0.951750 0.015018
vt 0.481230 0.002714
vt 0.630204 0.391477
vt 0.459575 0.045827
vt 0.868669 0.004617
vt 0.846822 0.047401
vt 0.825522 0.004129
vt 0.438113 0.002766
vt 0.673269 0.391708
vt 0.651195 0.434740
vt 0.964708 0.011825
vt 0.967647 0.011530
vt 0.968600 0.442374
vt 0.971544 0.442130
vt 0.869693 0.438324
vt 0.848190 0.475284
vt 0.826760 0.438150
vt 0.484003 0.438660
vt 0.634488 0.772327
vt 0.462697 0.475871
vt 0.656272 0.809355
vt 0.677346 0.772188
vt 0.441029 0.439053
vt 0.920376 0.017000
vt 0.917434 0.017269
vt 0.985964 0.439398
vt 0.983022 0.439667
vt 0.981848 0.010755
vt 0.978906 0.011028
s 0
usemtl Material
f 45/1/1 8/2/1 74/3/1 99/4/1
f 34/5/2 3/6/2 60/7/2 59/8/2
f 20/9/3 24/10/3 77/11/3 55/12/3
f 33/13/4 31/14/4 92/15/4 93/16/4
f 13/17/5 1/18/5 61/19/5 83/20/5
f 2/21/5 14/22/5 57/23/5 58/24/5
f 42/25/6 38/26/6 51/27/6 80/28/6
f 25/29/7 27/30/7 90/31/7 89/32/7
f 10/33/8 23/34/8 88/35/8 76/36/8
f 9/37/1 46/38/1 72/39/1 71/40/1
f 16/41/9 11/42/9 79/43/9 81/44/9
f 29/45/10 25/46/10 89/32/10 91/47/10
f 8/48/1 45/49/1 127/50/1 125/51/1
f 10/52/11 48/53/11 110/54/11 111/55/11
f 23/56/8 10/57/8 111/58/8 117/59/8
f 47/60/11 11/61/11 115/62/11 118/63/11
f 21/64/12 6/65/12 67/66/12 87/67/12
f 30/68/13 9/69/13 71/70/13 70/71/13
f 16/72/14 18/73/14 17/74/14 15/75/14
f 13/76/15 17/74/15 18/73/15 14/77/15
f 27/78/16 28/79/16 132/80/16 136/81/16
f 3/82/17 42/83/17 80/28/17 60/84/17
f 46/85/18 44/86/18 54/87/18 72/39/18
f 35/88/19 36/89/19 128/90/19 134/91/19
f 24/92/20 23/93/20 21/94/20 22/95/20
f 34/96/21 33/97/21 35/98/21 36/99/21
f 42/100/17 3/101/17 104/102/17 107/103/17
f 13/104/5 14/105/5 101/106/5 105/107/5
f 21/108/22 19/109/22 20/110/22 22/111/22
f 24/112/14 20/110/14 19/109/14 23/113/14
f 33/114/2 1/115/2 108/116/2 106/117/2
f 40/118/23 7/119/23 69/120/23 68/121/23
f 26/122/24 25/123/24 29/124/24 30/125/24
f 32/126/25 34/127/25 59/8/25 49/128/25
f 28/98/26 30/129/26 29/130/26 27/131/26
f 25/123/22 26/122/22 28/132/22 27/133/22
f 11/134/9 16/135/9 114/136/9 115/137/9
f 37/138/27 41/139/27 97/140/27 95/141/27
f 26/142/28 30/143/28 70/71/28 52/144/28
f 35/145/22 31/146/22 32/147/22 36/148/22
f 34/149/15 32/147/15 31/146/15 33/150/15
f 14/151/29 18/152/29 82/153/29 57/23/29
f 38/154/24 37/155/24 39/156/24 40/157/24
f 36/158/30 32/159/30 49/128/30 62/160/30
f 37/155/15 38/154/15 42/161/15 41/162/15
f 14/105/5 2/163/5 102/164/5 101/106/5
f 19/165/31 21/166/31 87/67/31 86/167/31
f 39/168/32 37/169/32 95/141/32 96/170/32
f 48/171/14 44/172/14 43/173/14 47/174/14
f 45/175/24 43/173/24 44/172/24 46/176/24
f 21/177/12 22/178/12 130/179/12 135/180/12
f 7/181/23 40/182/23 119/183/23 120/184/23
f 40/182/23 39/185/23 126/186/23 119/183/23
f 28/79/16 6/187/16 133/188/16 132/80/16
f 24/189/8 23/56/8 117/59/8 112/190/8
f 15/191/9 12/192/9 113/193/9 116/194/9
f 30/195/13 29/196/13 124/197/13 121/198/13
f 1/199/5 13/104/5 105/107/5 108/200/5
f 82/153/15 73/201/15 58/24/15 57/23/15
f 51/27/33 50/202/33 60/84/33 80/28/33
f 92/15/34 56/203/34 61/204/34 93/16/34
f 49/128/35 50/205/35 63/206/35 62/160/35
f 52/144/36 53/207/36 67/208/36 66/209/36
f 55/12/37 56/210/37 65/211/37 64/212/37
f 95/141/24 73/213/24 74/214/24 96/170/24
f 54/87/38 53/215/38 71/40/38 72/39/38
f 89/32/39 50/216/39 69/217/39 91/47/39
f 98/218/14 73/219/14 79/220/14 100/221/14
f 85/222/40 56/223/40 78/224/40 84/225/40
f 86/167/41 53/226/41 76/36/41 88/35/41
f 73/201/14 82/153/14 81/44/14 79/43/14
f 56/223/42 85/222/42 83/20/42 61/19/42
f 56/210/43 55/12/43 77/11/43 78/227/43
f 53/226/44 86/167/44 87/67/44 67/66/44
f 53/207/45 52/144/45 70/71/45 71/70/45
f 50/216/46 89/32/46 90/31/46 63/228/46
f 56/203/47 92/15/47 94/229/47 65/230/47
f 50/205/48 49/128/48 59/8/48 60/7/48
f 50/202/49 51/27/49 68/121/49 69/120/49
f 73/213/15 95/141/15 97/140/15 58/231/15
f 53/215/50 54/87/50 75/232/50 76/233/50
f 73/219/24 98/218/24 99/4/24 74/3/24
f 12/234/9 15/235/9 84/225/9 78/224/9
f 28/236/51 26/237/51 52/144/51 66/209/51
f 11/238/11 47/239/11 100/221/11 79/220/11
f 8/240/23 39/241/23 96/170/23 74/214/23
f 48/242/11 10/243/11 76/233/11 75/232/11
f 18/244/52 16/245/52 81/44/52 82/153/52
f 22/246/53 20/247/53 55/12/53 64/212/53
f 41/248/17 2/249/17 58/231/17 97/140/17
f 24/250/8 12/251/8 78/227/8 77/11/8
f 1/252/2 33/253/2 93/16/2 61/204/2
f 5/254/19 36/255/19 62/160/19 63/206/19
f 44/256/54 48/257/54 75/232/54 54/87/54
f 15/258/55 17/259/55 85/222/55 84/225/55
f 35/260/19 4/261/19 65/230/19 94/229/19
f 4/262/12 22/263/12 64/212/12 65/211/12
f 47/264/56 43/265/56 98/218/56 100/221/56
f 17/266/57 13/267/57 83/20/57 85/222/57
f 27/268/16 5/269/16 63/228/16 90/31/16
f 6/270/16 28/271/16 66/209/16 67/208/16
f 43/272/58 45/273/58 99/4/58 98/218/58
f 38/274/59 40/275/59 68/121/59 51/27/59
f 7/276/13 29/277/13 91/47/13 69/217/13
f 23/278/60 19/279/60 86/167/60 88/35/60
f 31/280/61 35/281/61 94/229/61 92/15/61
f 39/185/23 8/282/23 125/283/23 126/186/23
f 46/284/1 9/285/1 122/286/1 123/287/1
f 2/288/17 41/289/17 109/290/17 102/291/17
f 5/292/16 27/78/16 136/81/16 129/293/16
f 22/178/12 4/294/12 131/295/12 130/179/12
f 103/296/15 106/297/15 101/298/15 109/299/15
f 106/297/15 105/300/15 101/298/15
f 105/300/15 106/297/15 108/301/15
f 104/302/15 103/296/15 107/303/15
f 102/304/15 109/299/15 101/298/15
f 103/296/15 109/299/15 107/303/15
f 41/289/17 42/100/17 107/103/17 109/290/17
f 3/305/2 34/306/2 103/307/2 104/308/2
f 34/306/2 33/114/2 106/117/2 103/307/2
f 112/309/14 117/310/14 118/311/14 114/312/14
f 118/311/14 117/310/14 110/313/14
f 112/309/14 114/312/14 116/314/14
f 113/315/14 112/309/14 116/314/14
f 111/316/14 110/313/14 117/310/14
f 115/317/14 114/312/14 118/311/14
f 16/135/9 15/191/9 116/194/9 114/136/9
f 48/53/11 47/60/11 118/63/11 110/54/11
f 12/318/8 24/189/8 112/190/8 113/319/8
f 121/320/24 127/321/24 123/322/24
f 120/323/24 119/324/24 124/325/24
f 122/326/24 121/320/24 123/322/24
f 126/327/24 125/328/24 127/321/24
f 126/327/24 124/325/24 119/324/24
f 121/320/24 124/325/24 126/327/24 127/321/24
f 29/196/13 7/329/13 120/330/13 124/197/13
f 45/49/1 46/284/1 123/287/1 127/50/1
f 9/331/13 30/195/13 121/198/13 122/332/13
f 131/333/22 134/334/22 130/335/22
f 135/336/22 136/337/22 132/338/22
f 129/339/22 136/337/22 128/340/22
f 133/341/22 135/336/22 132/338/22
f 134/334/22 128/340/22 130/335/22
f 135/336/22 130/335/22 128/340/22 136/337/22
f 6/342/12 21/177/12 135/180/12 133/343/12
f 36/89/19 5/344/19 129/345/19 128/90/19
f 4/346/19 35/88/19 134/91/19 131/347/19
